#!OML:ASF C:\ViconDB\ViconDB\414\Spring2016\041811\Spring2016.ASF
:FULLY-SPECIFIED
:DEGREES
324
root 8.59999 18.29 -38.5765 -182.005 -3.95228 -179.984
lowerback 1.88491 -0.77369 -4.88591
upperback 0.984822 -1.13279 0.343297
thorax 0.0568011 -0.596224 3.11197
lowerneck -9.06397 -2.7089 -9.88046
upperneck 19.7247 -6.53574 14.8899
head 8.36167 -3.02913 6.00086
rclavicle 2.92276e-015 5.76476e-015
rhumerus -51.6582 -22.7194 -73.9097
rradius 33.4576
rwrist 42.2061
rhand -31.0241 -12.168
rfingers 7.12502
rthumb -4.30642 -42.1042
lclavicle 2.92276e-015 5.76476e-015
lhumerus -28.6373 -12.6434 90.1241
lradius 33.942
lwrist -25.3729
lhand -28.8708 16.1139
lfingers 7.12502
lthumb -2.22694 46.0821
rfemur -28.7745 -21.0911 21.0522
rtibia 57.8774
rfoot -170.279 -0.160251
rtoes -9.08695
lfemur -5.4572 -9.39455 -22.4184
ltibia 28.8873
lfoot -22.6276 2.1087
ltoes -10.9744
325
root 8.59876 18.2998 -38.7697 -181.942 -4.1869 -180.011
lowerback 1.78489 -0.870708 -4.94354
upperback 0.987291 -1.25659 0.377502
thorax 0.128719 -0.659962 3.17938
lowerneck -8.75478 -2.62134 -9.74462
upperneck 19.582 -6.47293 14.957
head 8.24439 -3.00545 6.00468
rclavicle -1.63873e-014 -2.18663e-015
rhumerus -52.2127 -22.7978 -73.5745
rradius 33.0437
rwrist 42.3946
rhand -31.079 -12.3809
rfingers 7.12502
rthumb -4.35941 -42.316
lclavicle -1.63873e-014 -2.18663e-015
lhumerus -28.0808 -13.2006 89.9972
lradius 34.7922
lwrist -24.9687
lhand -28.9599 16.164
lfingers 7.12502
lthumb -2.31302 46.1312
rfemur -29.2405 -21.1198 21.7136
rtibia 54.4814
rfoot -170.1 -0.404474
rtoes -9.75707
lfemur -4.53651 -9.20791 -22.4717
ltibia 28.2832
lfoot -22.8037 1.80491
ltoes -11.5061
326
root 8.59896 18.3254 -38.9615 -181.888 -4.38008 -179.971
lowerback 1.73783 -0.983139 -5.05692
upperback 0.944648 -1.40366 0.533504
thorax 0.131754 -0.732549 3.40532
lowerneck -8.59359 -2.56062 -9.79663
upperneck 19.6032 -6.40043 14.9401
head 8.21093 -2.98691 6.01722
rclavicle 4.03005e-015 6.75868e-015
rhumerus -52.8669 -22.7682 -72.9876
rradius 32.7221
rwrist 43.0036
rhand -30.6066 -12.1075
rfingers 7.12502
rthumb -3.90321 -42.0515
lclavicle 4.03005e-015 6.75868e-015
lhumerus -27.6732 -13.6027 89.95
lradius 35.7144
lwrist -24.5514
lhand -29.1146 15.8531
lfingers 7.12502
lthumb -2.46237 45.8186
rfemur -29.4116 -20.9878 22.3525
rtibia 51.1399
rfoot -170.245 -0.435572
rtoes -9.50164
lfemur -3.38391 -9.32004 -22.4869
ltibia 27.3155
lfoot -22.9137 1.83472
ltoes -11.5985
327
root 8.60225 18.3317 -39.1483 -181.824 -4.45043 -179.923
lowerback 1.71617 -1.01893 -5.0438
upperback 0.909051 -1.44917 0.598689
thorax 0.113094 -0.753588 3.46573
lowerneck -8.43075 -2.51536 -9.75101
upperneck 19.6074 -6.38724 14.9844
head 8.17921 -2.98794 6.02684
rclavicle -8.04457e-016 9.93923e-015
rhumerus -53.4936 -22.7974 -72.6372
rradius 32.526
rwrist 43.2838
rhand -30.5274 -12.0853
rfingers 7.12502
rthumb -3.82675 -42.0307
lclavicle -8.04457e-016 9.93923e-015
lhumerus -27.2468 -14.3015 89.8526
lradius 36.5499
lwrist -24.2097
lhand -29.2636 15.8939
lfingers 7.12502
lthumb -2.60629 45.8577
rfemur -29.2439 -20.5341 22.8309
rtibia 47.7055
rfoot -170.242 -0.178107
rtoes -9.35714
lfemur -2.0938 -9.49933 -22.5056
ltibia 26.1024
lfoot -22.8811 2.09134
ltoes -11.6144
328
root 8.60086 18.3486 -39.3359 -181.747 -4.56 -179.781
lowerback 1.69476 -1.16277 -4.94111
upperback 0.827737 -1.63702 0.712142
thorax 0.060191 -0.843237 3.52775
lowerneck -9.48726 -3.47299 -10.6741
upperneck 21.0507 -7.93503 15.2582
head 9.13691 -3.75357 6.14314
rclavicle -1.17236e-014 -4.57205e-015
rhumerus -53.9893 -22.6544 -72.3183
rradius 32.1113
rwrist 43.8909
rhand -30.3025 -12.0282
rfingers 7.12502
rthumb -3.60962 -41.9774
lclavicle -1.17236e-014 -4.57205e-015
lhumerus -27.0157 -14.9611 89.7397
lradius 37.4563
lwrist -23.2975
lhand -30.0129 15.3121
lfingers 7.12502
lthumb -3.32987 45.2658
rfemur -29.1794 -20.2559 23.3839
rtibia 44.4506
rfoot -169.906 0.1621
rtoes -9.67392
lfemur -0.713318 -9.64505 -22.4172
ltibia 24.6089
lfoot -22.7587 2.25001
ltoes -11.7095
329
root 8.60367 18.3685 -39.5377 -181.573 -4.61132 -179.584
lowerback 1.37868 -1.24296 -4.78204
upperback 0.7477 -1.72323 0.82625
thorax 0.162282 -0.885585 3.55004
lowerneck -9.31655 -3.4279 -10.6425
upperneck 21.145 -7.94795 15.2821
head 9.13706 -3.77474 6.1483
rclavicle -2.9226e-014 1.07344e-014
rhumerus -54.6441 -22.6104 -71.8851
rradius 31.8727
rwrist 44.854
rhand -30.0302 -11.7154
rfingers 7.12502
rthumb -3.34665 -41.6689
lclavicle -2.9226e-014 1.07344e-014
lhumerus -26.7371 -15.2272 89.5628
lradius 38.2415
lwrist -23.352
lhand -30.1328 15.1738
lfingers 7.12502
lthumb -3.44567 45.1257
rfemur -29.2039 -20.0268 23.9947
rtibia 41.3557
rfoot -169.44 0.843682
rtoes -10.4362
lfemur 0.671911 -9.49965 -22.187
ltibia 22.9529
lfoot -22.4973 2.18861
ltoes -11.8604
330
root 8.6048 18.3863 -39.7541 -181.227 -4.87979 -179.973
lowerback 0.707698 -1.40033 -5.1238
upperback 0.711089 -1.8984 0.744479
thorax 0.526722 -0.982089 3.64034
lowerneck -9.25549 -3.3845 -10.6287
upperneck 21.2677 -7.95234 15.3212
head 9.16837 -3.78489 6.1632
rclavicle -4.84848e-015 -3.97569e-016
rhumerus -55.1359 -22.5397 -71.615
rradius 31.6225
rwrist 45.6223
rhand -29.9639 -11.6104
rfingers 7.12502
rthumb -3.28261 -41.5649
lclavicle -4.84848e-015 -3.97569e-016
lhumerus -26.4716 -15.6782 89.341
lradius 39.0578
lwrist -23.2564
lhand -30.5552 14.9724
lfingers 7.12502
lthumb -3.85359 44.9173
rfemur -29.415 -20.4165 23.9647
rtibia 38.5022
rfoot -168.422 1.84866
rtoes -11.2574
lfemur 1.99042 -9.21253 -22.5471
ltibia 21.2131
lfoot -22.1524 1.83952
ltoes -11.7967
331
root 8.61527 18.3939 -39.957 -181.077 -5.05829 -180.37
lowerback 0.448533 -1.47931 -5.56294
upperback 0.659019 -1.99043 0.685509
thorax 0.641314 -1.03208 3.81907
lowerneck -9.12982 -3.38951 -10.6684
upperneck 21.4199 -8.03798 15.3625
head 9.21192 -3.84297 6.18
rclavicle -1.51527e-014 -2.28602e-015
rhumerus -55.7064 -22.5315 -71.2017
rradius 31.3439
rwrist 46.6151
rhand -29.8448 -11.2795
rfingers 7.12502
rthumb -3.16755 -41.2357
lclavicle -1.51527e-014 -2.28602e-015
lhumerus -26.3013 -16.2954 89.1849
lradius 39.8583
lwrist -23.3743
lhand -30.9047 14.4851
lfingers 7.12502
lthumb -4.19109 44.4237
rfemur -29.3006 -20.6169 23.8753
rtibia 35.446
rfoot -167.538 2.64325
rtoes -12.6811
lfemur 3.27327 -8.91192 -22.8872
ltibia 19.8585
lfoot -21.8795 1.27866
ltoes -10.9737
332
root 8.62959 18.3764 -40.1559 -180.978 -5.04367 -181.039
lowerback 0.259058 -1.49862 -6.36114
upperback 0.670623 -2.0056 0.605881
thorax 0.787044 -1.04981 4.17943
lowerneck -9.07356 -3.39617 -10.824
upperneck 21.4722 -8.06877 15.4467
head 9.23294 -3.86989 6.23718
rclavicle -2.34989e-014 2.38542e-015
rhumerus -56.0512 -22.283 -71.0826
rradius 31.3207
rwrist 46.8544
rhand -29.4938 -11.208
rfingers 7.12502
rthumb -2.82863 -41.169
lclavicle -2.34989e-014 2.38542e-015
lhumerus -26.0898 -16.6239 89.0594
lradius 40.6534
lwrist -23.4215
lhand -31.0802 14.625
lfingers 7.12502
lthumb -4.36063 44.5601
rfemur -28.9843 -20.2378 23.3251
rtibia 32.3027
rfoot -166.613 3.1363
rtoes -11.7745
lfemur 4.42639 -8.56431 -23.532
ltibia 18.8388
lfoot -21.8569 1.05063
ltoes -11.228
333
root 8.64346 18.3167 -40.3562 -180.9 -5.00822 -181.298
lowerback 0.151084 -1.48768 -6.55415
upperback 0.557528 -1.98628 0.521642
thorax 0.732302 -1.03633 4.19971
lowerneck -8.86301 -3.35111 -10.7422
upperneck 21.5889 -8.08444 15.4065
head 9.22878 -3.89646 6.2107
rclavicle -1.91994e-014 8.74653e-015
rhumerus -56.7786 -22.4139 -70.6634
rradius 31.2787
rwrist 47.7098
rhand -29.3894 -11.0412
rfingers 7.12502
rthumb -2.72774 -41.0035
lclavicle -1.91994e-014 8.74653e-015
lhumerus -26.1193 -17.1148 88.8945
lradius 41.4458
lwrist -23.434
lhand -30.8836 14.9185
lfingers 7.12502
lthumb -4.17074 44.8575
rfemur -28.5396 -18.4269 22.534
rtibia 29.0427
rfoot -166.707 3.30547
rtoes -8.18806
lfemur 5.43356 -8.13474 -23.6773
ltibia 18.104
lfoot -21.8724 0.579277
ltoes -11.3166
334
root 8.66219 18.2735 -40.5566 -180.79 -4.9225 -181.477
lowerback -0.123936 -1.51827 -6.78107
upperback 0.570467 -2.00595 0.498819
thorax 0.909873 -1.054 4.295
lowerneck -8.82083 -3.32182 -10.7458
upperneck 21.6322 -8.10398 15.5143
head 9.24276 -3.90712 6.24968
rclavicle -9.70162e-015 -1.26725e-014
rhumerus -57.072 -22.1068 -70.7596
rradius 31.301
rwrist 47.9316
rhand -29.289 -10.8966
rfingers 7.12502
rthumb -2.63079 -40.8601
lclavicle -9.70162e-015 -1.26725e-014
lhumerus -25.9042 -17.2397 88.6092
lradius 42.0652
lwrist -23.5053
lhand -31.3655 14.3832
lfingers 7.12502
lthumb -4.63603 44.3125
rfemur -28.0709 -16.4685 21.8952
rtibia 26.1613
rfoot -166.896 3.08838
rtoes -6.39021
lfemur 6.34627 -7.55802 -23.6743
ltibia 17.4983
lfoot -21.9232 0.0595366
ltoes -12.0364
